<?xml version="1.0" ?><!DOCTYPE svg  PUBLIC '-//W3C//DTD SVG 1.1//EN'  'http://www.w3.org/Graphics/SVG/1.1/DTD/svg11.dtd'><svg enable-background="new 0 0 24 24" height="24px" id="Layer_1" version="1.1" viewBox="0 0 24 24" width="24px" xml:space="preserve" xmlns="http://www.w3.org/2000/svg" xmlns:xlink="http://www.w3.org/1999/xlink"><g><path d="M13.5,9.2h-2.6v2.3h2.6c0.6,0,1.2-0.5,1.2-1.2C14.6,9.7,14.1,9.2,13.5,9.2z"/><path d="M12,0.5C5.7,0.5,0.5,5.7,0.5,12S5.7,23.5,12,23.5S23.5,18.3,23.5,12S18.3,0.5,12,0.5z M13.5,14.7h-2.6v2.8   c0,0.3-0.2,0.5-0.5,0.5H8.1c-0.3,0-0.5-0.2-0.5-0.5v-11C7.7,6.2,7.9,6,8.1,6h5.3c2.4,0,4.3,1.9,4.3,4.3   C17.8,12.7,15.9,14.7,13.5,14.7z"/></g></svg>